REM DIRINDEX 1\2,1\4,1\5,1\6,1\7,1\8,1\3\9,1\3\10,1\3\11,1\12
REM DIRNAME cjc055,folder01,folder02,folder03,folder04,folder05,folder06,folder07,folder08,folder09,folder10,folder11
TITLE ""
FILE "CD-BTrack41.mp3" MP3
  TRACK 01 AUDIO
    TITLE "12:cjc055_3161"
    INDEX 01 00:00:00
  TRACK 02 AUDIO
    TITLE "6:cjc055_3162"
    INDEX 01 00:03:57
  TRACK 03 AUDIO
    TITLE "6:cjc055_3163"
    INDEX 01 00:05:69
  TRACK 04 AUDIO
    TITLE "6:cjc055_3164"
    INDEX 01 00:07:02
  TRACK 05 AUDIO
    TITLE "6:cjc055_3165"
    INDEX 01 00:08:72
  TRACK 06 AUDIO
    TITLE "6:cjc055_3166"
    INDEX 01 00:10:08
  TRACK 07 AUDIO
    TITLE "6:cjc055_3167"
    INDEX 01 00:11:62
  TRACK 08 AUDIO
    TITLE "6:cjc055_3168"
    INDEX 01 00:13:06
  TRACK 09 AUDIO
    TITLE "6:cjc055_3169"
    INDEX 01 00:14:68
  TRACK 10 AUDIO
    TITLE "6:cjc055_3170"
    INDEX 01 00:16:14
  TRACK 11 AUDIO
    TITLE "6:cjc055_3171"
    INDEX 01 00:18:07
  TRACK 12 AUDIO
    TITLE "6:cjc055_3172"
    INDEX 01 00:19:26
  TRACK 13 AUDIO
    TITLE "6:cjc055_3173"
    INDEX 01 00:21:23
  TRACK 14 AUDIO
    TITLE "6:cjc055_3174"
    INDEX 01 00:22:36
  TRACK 15 AUDIO
    TITLE "6:cjc055_3175"
    INDEX 01 00:24:31
  TRACK 16 AUDIO
    TITLE "6:cjc055_3176"
    INDEX 01 00:25:45
  TRACK 17 AUDIO
    TITLE "6:cjc055_3177"
    INDEX 01 00:27:24
  TRACK 18 AUDIO
    TITLE "6:cjc055_3178"
    INDEX 01 00:28:43
  TRACK 19 AUDIO
    TITLE "6:cjc055_3179"
    INDEX 01 00:30:06
  TRACK 20 AUDIO
    TITLE "6:cjc055_3180"
    INDEX 01 00:31:29
  TRACK 21 AUDIO
    TITLE "6:cjc055_3181"
    INDEX 01 00:33:09
  TRACK 22 AUDIO
    TITLE "6:cjc055_3182"
    INDEX 01 00:34:18
  TRACK 23 AUDIO
    TITLE "6:cjc055_3183"
    INDEX 01 00:35:72
  TRACK 24 AUDIO
    TITLE "6:cjc055_3184"
    INDEX 01 00:37:07
  TRACK 25 AUDIO
    TITLE "6:cjc055_3185"
    INDEX 01 00:38:69
  TRACK 26 AUDIO
    TITLE "6:cjc055_3186"
    INDEX 01 00:40:19
  TRACK 27 AUDIO
    TITLE "6:cjc055_3187"
    INDEX 01 00:42:04
  TRACK 28 AUDIO
    TITLE "6:cjc055_3188"
    INDEX 01 00:43:31
  TRACK 29 AUDIO
    TITLE "6:cjc055_3189"
    INDEX 01 00:45:08
  TRACK 30 AUDIO
    TITLE "6:cjc055_3190"
    INDEX 01 00:46:23
  TRACK 31 AUDIO
    TITLE "6:cjc055_3191"
    INDEX 01 00:48:00
  TRACK 32 AUDIO
    TITLE "6:cjc055_3192"
    INDEX 01 00:49:16
  TRACK 33 AUDIO
    TITLE "6:cjc055_3193"
    INDEX 01 00:50:72
  TRACK 34 AUDIO
    TITLE "6:cjc055_3194"
    INDEX 01 00:52:18
  TRACK 35 AUDIO
    TITLE "6:cjc055_3195"
    INDEX 01 00:54:17
  TRACK 36 AUDIO
    TITLE "6:cjc055_3196"
    INDEX 01 00:55:24
  TRACK 37 AUDIO
    TITLE "6:cjc055_3197"
    INDEX 01 00:57:01
  TRACK 38 AUDIO
    TITLE "6:cjc055_3198"
    INDEX 01 00:58:30
  TRACK 39 AUDIO
    TITLE "6:cjc055_3199"
    INDEX 01 01:00:12
  TRACK 40 AUDIO
    TITLE "6:cjc055_3200"
    INDEX 01 01:01:46
  TRACK 41 AUDIO
    TITLE "6:cjc055_3201"
    INDEX 01 01:03:41
  TRACK 42 AUDIO
    TITLE "6:cjc055_3202"
    INDEX 01 01:04:60
  TRACK 43 AUDIO
    TITLE "6:cjc055_3203"
    INDEX 01 01:06:42
  TRACK 44 AUDIO
    TITLE "6:cjc055_3204"
    INDEX 01 01:07:66
  TRACK 45 AUDIO
    TITLE "6:cjc055_3205"
    INDEX 01 01:09:44
  TRACK 46 AUDIO
    TITLE "6:cjc055_3206"
    INDEX 01 01:10:57
  TRACK 47 AUDIO
    TITLE "6:cjc055_3207"
    INDEX 01 01:12:34
  TRACK 48 AUDIO
    TITLE "6:cjc055_3208"
    INDEX 01 01:13:49
  TRACK 49 AUDIO
    TITLE "6:cjc055_3209"
    INDEX 01 01:15:31
  TRACK 50 AUDIO
    TITLE "6:cjc055_3210"
    INDEX 01 01:16:60
  TRACK 51 AUDIO
    TITLE "6:cjc055_3211"
    INDEX 01 01:18:47
  TRACK 52 AUDIO
    TITLE "6:cjc055_3212"
    INDEX 01 01:19:66
  TRACK 53 AUDIO
    TITLE "6:cjc055_3213"
    INDEX 01 01:21:41
  TRACK 54 AUDIO
    TITLE "6:cjc055_3214"
    INDEX 01 01:22:58
  TRACK 55 AUDIO
    TITLE "6:cjc055_3215"
    INDEX 01 01:24:32
  TRACK 56 AUDIO
    TITLE "6:cjc055_3216"
    INDEX 01 01:25:33
  TRACK 57 AUDIO
    TITLE "6:cjc055_3217"
    INDEX 01 01:27:10
  TRACK 58 AUDIO
    TITLE "6:cjc055_3218"
    INDEX 01 01:28:41
  TRACK 59 AUDIO
    TITLE "6:cjc055_3219"
    INDEX 01 01:30:20
  TRACK 60 AUDIO
    TITLE "6:cjc055_3220"
    INDEX 01 01:31:41
  TRACK 61 AUDIO
    TITLE "0:"
    INDEX 01 01:33:03
